<svg enable-background="new 0 0 366 202" viewBox="0 0 366 202" xmlns="http://www.w3.org/2000/svg" xmlns:xlink="http://www.w3.org/1999/xlink"><clipPath id="a"><path d="m0 0h366v202h-366z"/></clipPath><path d="m56.4 5.9-51.1 86.8v70.3h22.5v-70.3l51.1-86.8c.3-.4.7-.7 1.3-.7h-22.6c-.5 0-1 .2-1.2.7zm0 0" fill="#e7e3e3"/><path d="m179.7 5.2c-5 0-9 4-9 9v149.7h22.5v-149.7c0-5 4-9 9-9zm0 0" fill="#e7e3e3"/><path d="m285.7 147.1c-6.8 0-12.9 4.1-15.5 10.3-2.6 6.3-1.2 13.5 3.6 18.3s12 6.2 18.3 3.6 10.3-8.7 10.3-15.5c.1-9.2-7.4-16.7-16.7-16.7zm0 24.5c-3.1 0-6-1.9-7.2-4.8s-.6-6.2 1.7-8.5c2.2-2.2 5.5-2.9 8.4-1.7s4.8 4 4.8 7.2c.1 4.3-3.4 7.7-7.7 7.8zm0 0" fill="#e01f28"/><path d="m69.5 147.1c-6.8 0-12.9 4.1-15.5 10.3-2.6 6.3-1.2 13.5 3.6 18.3s12 6.2 18.3 3.6 10.3-8.7 10.3-15.5c0-9.2-7.5-16.7-16.7-16.7zm0 24.5c-3.1 0-6-1.9-7.2-4.8s-.6-6.2 1.7-8.5c2.2-2.2 5.6-2.9 8.4-1.7 2.9 1.2 4.8 4 4.8 7.2 0 4.3-3.5 7.7-7.7 7.8zm0 0" fill="#e01f28"/><g fill="#353432"><path d="m351.8.7h-172c-7.5 0-13.5 6-13.5 13.5v73.9h-15.1v-82.9c0-2.5-2-4.5-4.5-4.5h-89c-2 0-3.8 1-5 2.6-.1.1-.1.2-.2.3l-51.1 86.8c-.4.7-.6 1.5-.6 2.3v70.3c0 2.5 2 4.5 4.5 4.5h30.9v-9h-26.4v-61.3h31.5c6 0 6-9 0-9h-28.1l46.1-78.5h82.8v78.4l-83.5.1c-6 0-6 9 0 9l83.5-.1v62.4l-39.3.1v9l149.5-.2v-9h-77.2v-34.8h181v34.8h-37.9v9h42.4c2.5 0 4.5-2 4.5-4.5v-149.7c.1-7.5-5.9-13.5-13.3-13.5zm-185.6 158.7h-15.1v-62.3h15.1zm190.1-43.8h-181v-30.1l61.6.1c2.1 13.4 13.6 23.3 27.1 23.2 13.5 0 25-10 27-23.4h65.3zm-110.8-34.1c0-.1 0-.2 0-.3.1-10 8.3-18.1 18.3-18.1s18.2 7.9 18.4 18v.2.2c0 10.1-8.2 18.4-18.4 18.4-10.1 0-18.3-8.3-18.3-18.4zm110.8-5h-65.5c-2.4-13-13.8-22.4-27-22.4s-24.5 9.5-26.8 22.5l-61.7-.1v-30.9h181zm0-39.9h-181v-22.4c0-2.5 2-4.5 4.5-4.5h172c2.5 0 4.5 2 4.5 4.5zm0 0"/><path d="m131.3 72.3v-46.5c0-2.5-2-4.5-4.5-4.5h-61.5c-1.7 0-3.2.9-4 2.4l-24 46.5c-1.5 3 .6 6.6 4 6.6h85.5c2.5 0 4.5-2 4.5-4.5zm-9-4.5h-73.6l19.3-37.5h54.3zm0 0"/><path clip-path="url(#a)" d="m120.2 115.2c6 0 6-9 0-9h-12.2c-6 0-6 9 0 9zm0 0"/></g><g fill="#e01f28"><path clip-path="url(#a)" d="m285.4 126.3c-15.2 0-28.8 9.1-34.6 23.1s-2.6 30.1 8.1 40.9c10.7 10.7 26.8 14 40.8 8.2s23.2-19.4 23.2-34.6v-.1c-.1-20.7-16.8-37.5-37.5-37.5zm28.5 37.6c0 15.7-12.8 28.5-28.5 28.5s-28.5-12.8-28.5-28.5c0-15.8 12.8-28.5 28.5-28.5 15.7-.1 28.5 12.7 28.5 28.5zm0 0"/><path d="m69.5 126.3c-20.4 0-37 16.3-37.5 36.6v.9c-.1 20.7 16.7 37.6 37.4 37.6 20.7.1 37.6-16.7 37.6-37.4v-.3c0-20.6-16.8-37.4-37.5-37.4zm28.5 37.7c-.1 15.7-12.9 28.4-28.6 28.4-15.7-.1-28.4-12.9-28.4-28.6 0-.2 0-.4 0-.6.3-15.6 13.2-28.1 28.8-27.9s28.2 12.9 28.2 28.6zm0 0"/></g></svg>