<svg width="62" height="62" viewBox="0 0 62 62" fill="none" xmlns="http://www.w3.org/2000/svg">
    <rect width="62" height="62" rx="5" fill="#d3d3da"/>
    <path d="M30.4727 24.6719H31.5273C31.6211 24.6719 31.668 24.7187 31.668 24.8125V37.1875C31.668 37.2813 31.6211 37.3281 31.5273 37.3281H30.4727C30.3789 37.3281 30.332 37.2813 30.332 37.1875V24.8125C30.332 24.7187 30.3789 24.6719 30.4727 24.6719Z" fill="#9C9CAA"/>
    <path d="M25.0938 30.332H36.9062C37 30.332 37.0469 30.3789 37.0469 30.4727V31.5273C37.0469 31.6211 37 31.668 36.9062 31.668H25.0938C25 31.668 24.9531 31.6211 24.9531 31.5273V30.4727C24.9531 30.3789 25 30.332 25.0938 30.332Z" fill="#9C9CAA"/>
</svg>
