<?xml version="1.0" encoding="utf-8"?>
<!-- Generator: Adobe Illustrator 27.1.1, SVG Export Plug-In . SVG Version: 6.00 Build 0)  -->
<svg version="1.1" id="Слой_1" xmlns="http://www.w3.org/2000/svg" xmlns:xlink="http://www.w3.org/1999/xlink" x="0px" y="0px"
	 viewBox="0 0 600.9 139" style="enable-background:new 0 0 600.9 139;" xml:space="preserve">
<style type="text/css">
	.st0{fill:#78787A;}
	.st1{fill:#EFC1BE;}
</style>
<g transform="translate(0.000000,897.000000) scale(0.100000,-0.100000)">
	<path class="st0" d="M584,8908c-15-35-43-99-62-143c-20-44-44-98-53-120c-10-22-38-87-63-145c-45-106-180-414-216-493
		c-10-23-49-112-86-197s-76-174-86-197l-18-43h70h70l18,43c61,139,140,318,186,422c150,341,201,457,232,530c19,44,38,84,43,89
		c6,6,16-6,26-30c9-21,57-132,106-247l91-207l-26-58c-25-56-215-461-242-514l-13-28h382h383l31,68c16,37,62,141,102,232
		s87,199,105,240c90,205,211,482,236,540c15,36,39,92,54,125s40,90,56,128l28,67h-70h-70l-16-37c-8-21-40-94-70-163s-77-177-105-240
		c-58-132-65-149-143-325c-32-71-75-170-97-220c-22-49-44-94-48-99c-5-5-15,6-23,25s-56,129-107,244c-50,116-94,217-97,225
		c-2,9,18,63,45,120c83,176,212,459,212,464c0,4-166,6-369,6H612L584,8908z M1152,8843c5-9-123-283-132-283c-3,0-17,26-30,58
		c-13,31-40,92-59,135l-35,77h-63c-47,0-64-4-64-13c0-11,58-151,134-322c8-16,17-40,20-52c4-11,13-24,22-27c12-5,12-12-6-47
		c-12-22-24-39-27-36c-12,13-220,507-215,512C705,8853,1147,8851,1152,8843z M1029,8214c0-8,8-34,19-57c10-23,47-107,81-187
		s73-169,86-198c40-88,55-82-211-82c-142,0-235,4-235,10c0,15,120,274,133,287c10,10,25-18,73-130l60-142l67-1c42-1,67,2,67,9
		c0,14-169,408-182,423c-5,8-2,25,9,48C1013,8232,1029,8241,1029,8214z"/>
	<path class="st0" d="M4031,8435c-111-34-206-150-233-284c-12-58-12-65,6-99c13-23,40-49,75-70c102-60,106-69,68-169
		c-29-80-74-123-126-123c-51,0-66,18-59,70c4,35,3,40-11,36c-10-3-39-8-65-12c-55-7-67-25-67-98c0-82,68-125,178-112
		c138,16,252,134,301,312c27,97,9,141-81,188c-29,16-61,36-70,44c-57,48,33,212,115,212c49,0,62-13,60-59c-1-23-1-41,1-41
		c27,0,123,25,128,33c11,17,10,115-2,136C4226,8444,4115,8462,4031,8435z"/>
	<path class="st1" d="M1783,8384c-13-30-24-57-24-59c0-3,29-5,65-5c40,0,65-4,65-11c0-13-151-399-201-514c-20-46-79-207-79-216
		c0-6,27-9,61-7l61,3l105,265c58,146,124,312,147,370l43,105l70,3l71,3l21,51c11,27,18,54,15,59c-3,6-91,9-201,9l-195-2L1783,8384z"
		/>
	<path class="st1" d="M2244,8428c-8-24-34-123-75-283c-67-262-137-527-146-557c-5-16,3-18,63-18h68l70,117c39,64,79,133,91,152
		c12,20,40,65,62,100c23,35,49,81,59,102c19,40,33,50,33,23c0-13-56-257-101-444c-5-19-9-38-9-42c0-5,29-8,64-8h65l29,53
		c16,28,55,102,87,162c32,61,95,180,140,265c175,330,195,369,195,379c0,16-105,14-119-3c-11-13-53-97-191-383c-40-84-75-151-78-148
		c-2,2,10,73,28,157c88,425,86,388,28,388c-24,0-48-4-55-8c-11-7-36-49-158-272c-29-52-62-113-75-135c-12-22-32-57-42-78
		c-21-38-38-56-38-38c0,6,18,77,40,158c83,308,97,363,92,368C2359,8446,2248,8440,2244,8428z"/>
	<path class="st1" d="M3083,8430c-15-6-41-59-103-217c-45-114-86-217-91-228c-24-54-52-124-54-136c-1-8-9-30-18-49s-21-51-28-70
		s-24-59-37-88c-12-29-23-57-23-61c0-5,28-9,62-8l61,2l37,90c20,50,51,128,69,175s37,94,42,105c44,99,188,479,184,483
		C3175,8437,3106,8438,3083,8430z"/>
	<path class="st1" d="M3312,8383c-14-32-29-69-33-83c-5-14-38-99-75-190c-80-198-91-225-143-360c-22-58-48-122-56-142l-16-38h63h64
		l41,103c22,56,64,160,92,230c28,71,56,140,63,155c10,22,13-19,17-228l5-255l56-3l56-3l36,88c20,48,76,192,126,318
		c50,127,110,279,135,340c24,60,42,113,39,117c-6,10-95,10-111,0c-12-8-202-468-202-489c0-2-4-3-9-3s-10,107-10,241
		c-1,133-4,246-7,250c-3,5-28,9-55,9h-50L3312,8383z"/>
	<path class="st0" d="M4504,8343c-32-54-76-126-97-161c-53-86-332-551-347-579c-12-23-11-23,51-23h63l50,90l50,90h81c44,0,83-3,86-6
		c5-4,0-35-27-151c-5-22-3-23,59-23c58,0,64,2,69,23c3,12,24,119,47,237c22,118,54,280,70,360s32,166,35,193l7,47h-70h-70L4504,8343
		z M4519,8069c-22-95-43-176-46-181c-6-10-124-11-124,0c0,4,38,75,85,157c46,83,91,163,100,179c8,16,18,26,21,23
		C4558,8245,4542,8164,4519,8069z"/>
	<path class="st0" d="M4960,8423c-5-10-44-106-86-213s-115-291-161-407c-46-117-84-215-84-218s28-5,61-3l62,3l97,245
		c54,134,103,246,110,248c10,4,11-11,6-67c-4-39-4-153,0-252l7-180l55,3l55,3l42,105c41,103,280,707,292,736c5,13-5,15-58,12l-64-3
		l-81-205c-116-293-115-290-126-290c-6,0-7,22-3,60c4,33,4,146,0,250l-8,190h-53C4982,8440,4967,8436,4960,8423z"/>
	<path class="st0" d="M5505,8318c-27-68-102-257-167-422c-66-164-119-302-119-307s26-9,58-9c69,0,49-33,172,280
		c45,113,86,209,91,215c5,5,9-75,9-205c0-118,3-232,6-253l7-38l54,3l55,3l35,90c20,50,87,221,150,380c63,160,124,311,134,338l19,47
		h-63h-63l-99-250c-54-137-102-250-107-250c-4,0-8,113-8,250v250h-58h-58L5505,8318z"/>
</g>
</svg>
